<svg width="36" height="36" viewBox="0 0 36 36" fill="none" xmlns="http://www.w3.org/2000/svg">
<rect x="0.5" y="0.5" width="35" height="35" rx="17.5" stroke="#05B4CD"/>
<path fill-rule="evenodd" clip-rule="evenodd" d="M18.0374 26.8699H18.0337C16.5441 26.8694 15.0804 26.4956 13.7803 25.7865L9.06201 27.0242L10.3247 22.412C9.54582 21.0622 9.13597 19.5311 9.13663 17.9624C9.13859 13.055 13.1314 9.06238 18.0373 9.06238C20.4183 9.06341 22.653 9.99032 24.3334 11.6727C26.0139 13.355 26.9388 15.5912 26.9379 17.9694C26.9359 22.8757 22.9447 26.8679 18.0374 26.8699ZM13.9988 24.1754L14.269 24.3358C15.4048 25.0098 16.7068 25.3664 18.0343 25.3669H18.0373C22.1147 25.3669 25.4333 22.0482 25.4349 17.9691C25.4357 15.9924 24.667 14.1338 23.2703 12.7354C21.8735 11.3371 20.0161 10.5666 18.0402 10.5659C13.9596 10.5659 10.6409 13.8843 10.6393 17.9631C10.6387 19.361 11.0298 20.7223 11.7704 21.9001L11.9462 22.18L11.1989 24.9099L13.9988 24.1754ZM22.2168 19.8859C22.372 19.9608 22.4767 20.0114 22.5214 20.0861C22.577 20.1788 22.577 20.6241 22.3918 21.1437C22.2064 21.6632 21.3179 22.1373 20.8906 22.2011C20.5075 22.2584 20.0226 22.2823 19.4898 22.113C19.1668 22.0105 18.7526 21.8737 18.222 21.6445C16.1371 20.7443 14.7281 18.7235 14.4618 18.3416C14.4432 18.3149 14.4301 18.2962 14.4229 18.2864L14.4211 18.284C14.3034 18.127 13.5148 17.0748 13.5148 15.9858C13.5148 14.9614 14.018 14.4245 14.2496 14.1773C14.2655 14.1604 14.2801 14.1448 14.2931 14.1305C14.497 13.9079 14.7379 13.8522 14.8862 13.8522C15.0344 13.8522 15.1829 13.8536 15.3124 13.8601C15.3284 13.8609 15.345 13.8608 15.3622 13.8607C15.4918 13.86 15.6534 13.859 15.8128 14.2419C15.8741 14.3892 15.9638 14.6076 16.0585 14.838C16.2498 15.3039 16.4613 15.8187 16.4985 15.8932C16.5541 16.0045 16.5912 16.1343 16.517 16.2828C16.5059 16.3051 16.4956 16.3261 16.4858 16.3462C16.4301 16.4598 16.3891 16.5435 16.2946 16.6538C16.2575 16.6972 16.2191 16.744 16.1807 16.7907C16.1042 16.8839 16.0277 16.9771 15.961 17.0434C15.8497 17.1543 15.7338 17.2747 15.8635 17.4973C15.9933 17.72 16.4396 18.4482 17.1007 19.0379C17.8114 19.6718 18.4291 19.9398 18.7422 20.0756C18.8033 20.1021 18.8529 20.1236 18.8892 20.1418C19.1115 20.2531 19.2412 20.2345 19.371 20.0861C19.5007 19.9377 19.9269 19.4367 20.0752 19.2141C20.2234 18.9915 20.3717 19.0286 20.5755 19.1028C20.7794 19.1771 21.8728 19.715 22.0952 19.8263C22.1386 19.8481 22.1792 19.8677 22.2168 19.8859Z" fill="#05B4CD"/>
</svg>
