<svg width="36" height="36" viewBox="0 0 36 36" fill="none" xmlns="http://www.w3.org/2000/svg">
<rect x="0.5" y="0.5" width="35" height="35" rx="17.5" stroke="#05B4CD"/>
<path d="M25.875 17.9509C25.875 17.9122 25.875 17.8682 25.8732 17.8173C25.8715 17.6749 25.868 17.5149 25.8645 17.3444C25.8504 16.854 25.8258 16.3653 25.7871 15.9048C25.7344 15.2702 25.657 14.7411 25.5516 14.3438C25.4403 13.9292 25.2221 13.5511 24.9189 13.2473C24.6156 12.9435 24.238 12.7245 23.8236 12.6124C23.3262 12.4788 22.3523 12.3962 20.9812 12.3452C20.3291 12.3206 19.6312 12.3048 18.9334 12.296C18.6891 12.2925 18.4623 12.2907 18.2584 12.2889H17.7416C17.5377 12.2907 17.3109 12.2925 17.0666 12.296C16.3688 12.3048 15.6709 12.3206 15.0187 12.3452C13.6477 12.3979 12.6721 12.4805 12.1764 12.6124C11.7619 12.7242 11.3841 12.9431 11.0808 13.247C10.7775 13.5509 10.5595 13.9291 10.4484 14.3438C10.3412 14.7411 10.2656 15.2702 10.2129 15.9048C10.1742 16.3653 10.1496 16.854 10.1355 17.3444C10.1303 17.5149 10.1285 17.6749 10.1268 17.8173C10.1268 17.8682 10.125 17.9122 10.125 17.9509V18.0493C10.125 18.088 10.125 18.1319 10.1268 18.1829C10.1285 18.3253 10.132 18.4852 10.1355 18.6557C10.1496 19.1462 10.1742 19.6348 10.2129 20.0954C10.2656 20.73 10.343 21.2591 10.4484 21.6563C10.6734 22.4983 11.3344 23.1628 12.1764 23.3878C12.6721 23.5214 13.6477 23.604 15.0187 23.655C15.6709 23.6796 16.3688 23.6954 17.0666 23.7042C17.3109 23.7077 17.5377 23.7094 17.7416 23.7112H18.2584C18.4623 23.7094 18.6891 23.7077 18.9334 23.7042C19.6312 23.6954 20.3291 23.6796 20.9812 23.655C22.3523 23.6022 23.3279 23.5196 23.8236 23.3878C24.6656 23.1628 25.3266 22.5001 25.5516 21.6563C25.6588 21.2591 25.7344 20.73 25.7871 20.0954C25.8258 19.6348 25.8504 19.1462 25.8645 18.6557C25.8697 18.4852 25.8715 18.3253 25.8732 18.1829C25.8732 18.1319 25.875 18.088 25.875 18.0493V17.9509ZM24.6094 18.0423C24.6094 18.0792 24.6094 18.1196 24.6076 18.1671C24.6059 18.3042 24.6023 18.4553 24.5988 18.6188C24.5865 19.0864 24.5619 19.554 24.525 19.9882C24.4775 20.5542 24.4107 21.0182 24.3281 21.3294C24.2191 21.7354 23.8992 22.0571 23.4949 22.1643C23.1258 22.2628 22.1959 22.3419 20.932 22.3893C20.2922 22.4139 19.6031 22.4298 18.9158 22.4385C18.675 22.4421 18.4518 22.4438 18.2514 22.4438H17.7486L17.0842 22.4385C16.3969 22.4298 15.7096 22.4139 15.068 22.3893C13.8041 22.3401 12.8725 22.2628 12.5051 22.1643C12.1008 22.0553 11.7809 21.7354 11.6719 21.3294C11.5893 21.0182 11.5225 20.5542 11.475 19.9882C11.4381 19.554 11.4152 19.0864 11.4012 18.6188C11.3959 18.4553 11.3941 18.3024 11.3924 18.1671C11.3924 18.1196 11.3906 18.0774 11.3906 18.0423V17.9579C11.3906 17.921 11.3906 17.8805 11.3924 17.8331C11.3941 17.696 11.3977 17.5448 11.4012 17.3813C11.4135 16.9137 11.4381 16.4462 11.475 16.012C11.5225 15.446 11.5893 14.9819 11.6719 14.6708C11.7809 14.2647 12.1008 13.943 12.5051 13.8358C12.8742 13.7374 13.8041 13.6583 15.068 13.6108C15.7078 13.5862 16.3969 13.5704 17.0842 13.5616C17.325 13.5581 17.5482 13.5563 17.7486 13.5563H18.2514L18.9158 13.5616C19.6031 13.5704 20.2904 13.5862 20.932 13.6108C22.1959 13.66 23.1275 13.7374 23.4949 13.8358C23.8992 13.9448 24.2191 14.2647 24.3281 14.6708C24.4107 14.9819 24.4775 15.446 24.525 16.012C24.5619 16.4462 24.5848 16.9137 24.5988 17.3813C24.6041 17.5448 24.6059 17.6977 24.6076 17.8331C24.6076 17.8805 24.6094 17.9227 24.6094 17.9579V18.0423ZM16.4355 20.3555L20.5137 17.9825L16.4355 15.6446V20.3555Z" fill="#05B4CD"/>
</svg>
