<svg width="36" height="36" viewBox="0 0 36 36" fill="none" xmlns="http://www.w3.org/2000/svg">
<rect x="0.5" y="0.5" width="35" height="35" rx="17.5" stroke="#05B4CD"/>
<path d="M9.13185 17.7802C10.6558 16.9408 12.357 16.2402 13.9464 15.536C16.6809 14.3826 19.4263 13.2492 22.1994 12.194C22.7389 12.0142 23.7084 11.8384 23.8034 12.638C23.7513 13.7697 23.5372 14.8949 23.3904 16.0201C23.0176 18.4944 22.5867 20.9602 22.1666 23.4264C22.0218 24.2479 20.9927 24.6731 20.3343 24.1474C18.7519 23.0786 17.1573 22.0201 15.5951 20.9264C15.0834 20.4065 15.5579 19.6597 16.0149 19.2884C17.3182 18.004 18.7004 16.9127 19.9356 15.5619C20.2688 14.7573 19.2844 15.4354 18.9596 15.6432C17.1754 16.8728 15.4348 18.1774 13.5536 19.258C12.5927 19.7869 11.4728 19.3349 10.5123 19.0398C9.65117 18.6832 8.38923 18.324 9.13176 17.7803L9.13185 17.7802Z" fill="#05B4CD"/>
</svg>
