<svg width="36" height="36" viewBox="0 0 36 36" fill="none" xmlns="http://www.w3.org/2000/svg">
<rect x="0.5" y="0.5" width="35" height="35" rx="17.5" stroke="#05B4CD"/>
<path fill-rule="evenodd" clip-rule="evenodd" d="M14.5987 9.7995C15.4785 9.759 15.759 9.75 18 9.75C20.241 9.75 20.5215 9.75975 21.4005 9.7995C22.2795 9.83925 22.8795 9.9795 23.4045 10.1827C23.9542 10.3905 24.453 10.7152 24.8655 11.1352C25.2855 11.547 25.6095 12.045 25.8165 12.5955C26.0205 13.1205 26.16 13.7205 26.2005 14.598C26.241 15.4792 26.25 15.7597 26.25 18C26.25 20.241 26.2402 20.5215 26.2005 21.4012C26.1607 22.2787 26.0205 22.8787 25.8165 23.4037C25.6095 23.9543 25.285 24.4531 24.8655 24.8655C24.453 25.2855 23.9542 25.6095 23.4045 25.8165C22.8795 26.0205 22.2795 26.16 21.402 26.2005C20.5215 26.241 20.241 26.25 18 26.25C15.759 26.25 15.4785 26.2402 14.5987 26.2005C13.7212 26.1607 13.1212 26.0205 12.5962 25.8165C12.0457 25.6095 11.5469 25.2849 11.1345 24.8655C10.7148 24.4535 10.39 23.9549 10.1827 23.4045C9.9795 22.8795 9.84 22.2795 9.7995 21.402C9.759 20.5207 9.75 20.2402 9.75 18C9.75 15.759 9.75975 15.4785 9.7995 14.5995C9.83925 13.7205 9.9795 13.1205 10.1827 12.5955C10.3903 12.0451 10.7153 11.5465 11.1352 11.1345C11.547 10.7149 12.0454 10.3901 12.5955 10.1827C13.1205 9.9795 13.7205 9.84 14.598 9.7995H14.5987ZM21.3337 11.2845C20.4637 11.2447 20.2027 11.2365 18 11.2365C15.7972 11.2365 15.5362 11.2447 14.6662 11.2845C13.8615 11.3212 13.425 11.4555 13.134 11.5687C12.7492 11.7187 12.474 11.8965 12.1853 12.1853C11.9115 12.4515 11.7009 12.7757 11.5687 13.134C11.4555 13.425 11.3212 13.8615 11.2845 14.6662C11.2447 15.5362 11.2365 15.7972 11.2365 18C11.2365 20.2027 11.2447 20.4637 11.2845 21.3337C11.3212 22.1385 11.4555 22.575 11.5687 22.866C11.7007 23.2237 11.9115 23.5485 12.1853 23.8147C12.4515 24.0885 12.7762 24.2992 13.134 24.4312C13.425 24.5445 13.8615 24.6787 14.6662 24.7155C15.5362 24.7552 15.7965 24.7635 18 24.7635C20.2035 24.7635 20.4637 24.7552 21.3337 24.7155C22.1385 24.6787 22.575 24.5445 22.866 24.4312C23.2507 24.2812 23.526 24.1035 23.8147 23.8147C24.0885 23.5485 24.2992 23.2237 24.4312 22.866C24.5445 22.575 24.6787 22.1385 24.7155 21.3337C24.7552 20.4637 24.7635 20.2027 24.7635 18C24.7635 15.7972 24.7552 15.5362 24.7155 14.6662C24.6787 13.8615 24.5445 13.425 24.4312 13.134C24.2812 12.7492 24.1035 12.474 23.8147 12.1853C23.5484 11.9116 23.2243 11.7009 22.866 11.5687C22.575 11.4555 22.1385 11.3212 21.3337 11.2845ZM16.9462 20.5432C17.5347 20.7882 18.19 20.8213 18.8002 20.6368C19.4104 20.4523 19.9375 20.0617 20.2917 19.5317C20.6459 19.0017 20.805 18.3652 20.742 17.7308C20.679 17.0965 20.3978 16.5037 19.9462 16.0537C19.6584 15.7661 19.3104 15.5459 18.9272 15.4089C18.5441 15.2719 18.1353 15.2215 17.7304 15.2615C17.3254 15.3014 16.9344 15.4306 16.5854 15.6398C16.2363 15.8491 15.9381 16.1331 15.712 16.4714C15.4859 16.8097 15.3376 17.194 15.2779 17.5965C15.2181 17.999 15.2484 18.4097 15.3664 18.7991C15.4844 19.1886 15.6874 19.547 15.9605 19.8485C16.2337 20.1501 16.5704 20.3874 16.9462 20.5432ZM15.0015 15.0015C15.3953 14.6077 15.8627 14.2954 16.3772 14.0823C16.8917 13.8692 17.4431 13.7595 18 13.7595C18.5569 13.7595 19.1083 13.8692 19.6228 14.0823C20.1373 14.2954 20.6047 14.6077 20.9985 15.0015C21.3923 15.3953 21.7046 15.8627 21.9177 16.3772C22.1308 16.8917 22.2405 17.4431 22.2405 18C22.2405 18.5569 22.1308 19.1083 21.9177 19.6228C21.7046 20.1373 21.3923 20.6047 20.9985 20.9985C20.2032 21.7938 19.1247 22.2405 18 22.2405C16.8753 22.2405 15.7968 21.7938 15.0015 20.9985C14.2062 20.2032 13.7595 19.1247 13.7595 18C13.7595 16.8753 14.2062 15.7968 15.0015 15.0015ZM23.181 14.391C23.2786 14.299 23.3567 14.1883 23.4107 14.0655C23.4648 13.9427 23.4936 13.8103 23.4956 13.6762C23.4975 13.5421 23.4725 13.4089 23.4221 13.2846C23.3717 13.1603 23.2968 13.0474 23.202 12.9525C23.1071 12.8577 22.9942 12.7828 22.8699 12.7324C22.7456 12.682 22.6124 12.657 22.4783 12.6589C22.3442 12.6609 22.2118 12.6897 22.089 12.7438C21.9662 12.7978 21.8555 12.8759 21.7635 12.9735C21.5845 13.1633 21.4865 13.4153 21.4903 13.6762C21.4941 13.9371 21.5994 14.1862 21.7839 14.3706C21.9683 14.5551 22.2174 14.6604 22.4783 14.6642C22.7392 14.668 22.9912 14.57 23.181 14.391Z" fill="#05B4CD"/>
</svg>
