<svg width="16" height="28" viewBox="0 0 16 28" fill="none" xmlns="http://www.w3.org/2000/svg">
<path d="M3 0.666626C1.34315 0.666626 0 2.00977 0 3.66663V7.42399C0 8.21964 0.31607 8.9827 0.87868 9.54531L5.33333 14L0.878679 18.4546C0.31607 19.0172 0 19.7803 0 20.5759V24.3333C0 25.9901 1.34315 27.3333 3 27.3333H13C14.6569 27.3333 16 25.9901 16 24.3333V20.5759C16 19.7803 15.6839 19.0172 15.1213 18.4546L10.6667 14L15.1213 9.54531C15.6839 8.9827 16 8.21964 16 7.42399V3.66663C16 2.00977 14.6569 0.666626 13 0.666626H3ZM13.0404 19.7071C13.228 19.8946 13.3333 20.149 13.3333 20.4142V23.6666C13.3333 24.2189 12.8856 24.6666 12.3333 24.6666H3.66667C3.11438 24.6666 2.66667 24.2189 2.66667 23.6666V20.4142C2.66667 20.149 2.77202 19.8946 2.95956 19.7071L8 14.6666L13.0404 19.7071ZM8 13.3333L2.95956 8.29285C2.77202 8.10532 2.66667 7.85096 2.66667 7.58575V4.33329C2.66667 3.78101 3.11438 3.33329 3.66667 3.33329H12.3333C12.8856 3.33329 13.3333 3.78101 13.3333 4.33329V7.58575C13.3333 7.85096 13.228 8.10532 13.0404 8.29285L8 13.3333Z" fill="white"/>
</svg>
