<svg width="32" height="32" viewBox="0 0 32 32" fill="none" xmlns="http://www.w3.org/2000/svg">
<path d="M27.3137 4.68625C24.2917 1.66431 20.2738 0 16 0C11.7262 0 7.70819 1.66431 4.68625 4.68625C1.66425 7.70825 0 11.7262 0 16C0 20.2738 1.66425 24.2917 4.68625 27.3137C7.70825 30.3357 11.7262 32 16 32C20.2738 32 24.2917 30.3357 27.3137 27.3137C30.3357 24.2917 32 20.2738 32 16C32 11.7262 30.3357 7.70831 27.3137 4.68625ZM16 30.125C8.21144 30.125 1.875 23.7886 1.875 16C1.875 8.21144 8.21144 1.875 16 1.875C23.7886 1.875 30.125 8.21144 30.125 16C30.125 23.7886 23.7886 30.125 16 30.125Z" fill="white"/>
</svg>
