<svg width="32" height="28" viewBox="0 0 32 28" fill="none" xmlns="http://www.w3.org/2000/svg">
<path d="M31.0684 3.73358C31.0664 3.73358 31.0645 3.73333 31.0625 3.73333H22.5625V2.8C22.5625 1.25611 21.3008 0 19.75 0H12.25C10.6992 0 9.4375 1.25611 9.4375 2.8V3.73333H0.9375C0.415527 3.73333 0 4.15917 0 4.66667V25.2C0 26.7439 1.26172 28 2.8125 28H29.1875C30.7383 28 32 26.7439 32 25.2V4.68635C32 4.68514 32 4.68392 32 4.68271C31.9641 4.06972 31.5854 3.73698 31.0684 3.73358ZM11.3125 2.8C11.3125 2.28545 11.7332 1.86667 12.25 1.86667H19.75C20.2668 1.86667 20.6875 2.28545 20.6875 2.8V3.73333H11.3125V2.8ZM29.7617 5.6L26.8503 14.2951C26.7227 14.6769 26.3652 14.9333 25.9612 14.9333H20.6875V14C20.6875 13.4845 20.2678 13.0667 19.75 13.0667H12.25C11.7322 13.0667 11.3125 13.4845 11.3125 14V14.9333H6.03882C5.63477 14.9333 5.27734 14.6769 5.14966 14.2951L2.23828 5.6H29.7617ZM18.8125 14.9333V16.8H13.1875V14.9333H18.8125ZM30.125 25.2C30.125 25.7146 29.7043 26.1333 29.1875 26.1333H2.8125C2.29565 26.1333 1.875 25.7146 1.875 25.2V10.4181L3.37085 14.8855C3.75415 16.0307 4.82642 16.8 6.03882 16.8H11.3125V17.7333C11.3125 18.2489 11.7322 18.6667 12.25 18.6667H19.75C20.2678 18.6667 20.6875 18.2489 20.6875 17.7333V16.8H25.9612C27.1736 16.8 28.2458 16.0307 28.6292 14.8855L30.125 10.4181V25.2Z" fill="white"/>
</svg>
