<svg width="399" height="338" viewBox="0 0 399 338" fill="none" xmlns="http://www.w3.org/2000/svg">
<g opacity="0.6">
<path d="M38.6921 285.432H4.01001V328.613H16.4827V295.706H38.6921V285.432Z" fill="white"/>
<path d="M65.4247 329.255C79.1848 329.255 89.163 320.025 89.163 307.022C89.163 294.02 79.1848 284.79 65.4247 284.79C51.6645 284.79 41.6059 294.02 41.6059 307.022C41.6059 320.025 51.6645 329.255 65.4247 329.255ZM65.4247 318.981C59.1481 318.981 54.32 314.487 54.32 307.022C54.32 299.558 59.1481 295.064 65.4247 295.064C71.7012 295.064 76.4489 299.558 76.4489 307.022C76.4489 314.487 71.7012 318.981 65.4247 318.981Z" fill="white"/>
<path d="M141.104 318.339V285.432H103.364L102.801 300.361C102.318 309.751 101.272 318.179 95.3176 318.339H93.5472V337.923H105.215V328.613H135.632V337.923H147.3V318.339H141.104ZM114.147 301.244L114.389 295.706H128.551V318.339H110.285C113.343 315.129 113.906 308.547 114.147 301.244Z" fill="white"/>
<path d="M177.088 329.255C190.848 329.255 200.826 320.025 200.826 307.022C200.826 294.02 190.848 284.79 177.088 284.79C163.327 284.79 153.269 294.02 153.269 307.022C153.269 320.025 163.327 329.255 177.088 329.255ZM177.088 318.981C170.811 318.981 165.983 314.487 165.983 307.022C165.983 299.558 170.811 295.064 177.088 295.064C183.364 295.064 188.112 299.558 188.112 307.022C188.112 314.487 183.364 318.981 177.088 318.981Z" fill="white"/>
<path d="M244.142 306.059C248.165 304.213 250.499 300.923 250.499 296.589C250.499 289.525 244.062 285.432 233.198 285.432H211.069V328.613H234.164C246.073 328.613 251.787 323.958 251.787 316.333C251.787 311.196 249.212 307.745 244.142 306.059ZM222.576 293.94H232.072C236.417 293.94 238.67 295.385 238.67 298.515C238.67 301.565 236.417 303.17 232.072 303.17H222.576V293.94ZM233.118 320.105H222.576V310.554H233.359C237.946 310.554 240.038 312.079 240.038 315.37C240.038 318.58 237.705 320.105 233.118 320.105Z" fill="white"/>
<path d="M285.509 299.237H275.209V285.432H262.736V328.613L283.819 328.693C295.889 328.693 302.648 323.155 302.648 313.604C302.648 304.534 296.855 299.317 285.509 299.237ZM307.316 328.613H319.788V285.432H307.316V328.613ZM282.692 319.784H275.209V307.263L282.692 307.344C287.52 307.424 290.176 309.19 290.176 313.443C290.176 317.697 287.52 319.864 282.692 319.784Z" fill="white"/>
<path d="M374.94 328.613L358.202 306.541L374.296 285.432H360.938L351.523 298.033L342.35 285.432H328.268L344.362 306.862L327.704 328.613H341.384L351.201 315.37L360.697 328.613H374.94Z" fill="white"/>
<path d="M79.2867 239.677C125.009 239.677 158.573 196.324 158.573 119.877C158.573 43.4298 125.009 0.0766602 79.2867 0.0766602C33.829 0.0766602 0 43.4298 0 119.877C0 196.324 33.829 239.677 79.2867 239.677ZM79.2867 194.338C58.1436 194.338 43.3434 172.496 43.3434 119.877C43.3434 67.2575 58.1436 45.4154 79.2867 45.4154C100.694 45.4154 115.494 67.2575 115.494 119.877C115.494 172.496 100.694 194.338 79.2867 194.338Z" fill="white"/>
<path d="M227.476 129.143C254.434 129.143 273.198 104.654 273.198 65.2718C273.198 25.89 254.434 1.40042 227.476 1.40042C200.519 1.40042 181.49 26.2209 181.49 65.2718C181.49 104.323 200.519 129.143 227.476 129.143ZM211.355 235.706H242.805L369.135 4.04793H337.685L211.355 235.706ZM227.476 102.006C216.112 102.006 208.183 89.7614 208.183 65.2718C208.183 40.7823 216.112 28.5375 227.476 28.5375C239.105 28.5375 246.77 40.4513 246.77 65.2718C246.77 90.0923 239.105 102.006 227.476 102.006ZM353.014 238.353C379.971 238.353 399 213.533 399 174.482C399 135.431 379.971 110.611 353.014 110.611C326.32 110.611 307.292 135.431 307.292 174.482C307.292 213.533 326.32 238.353 353.014 238.353ZM353.014 211.216C341.649 211.216 333.721 199.302 333.721 174.482C333.721 149.661 341.649 137.748 353.014 137.748C364.642 137.748 372.307 149.992 372.307 174.482C372.307 198.972 364.642 211.216 353.014 211.216Z" fill="white"/>
</g>
</svg>
