<svg width="320" height="228" viewBox="0 0 320 228" fill="none" xmlns="http://www.w3.org/2000/svg">
<g opacity="0.8">
<path d="M26.0109 188.397H0V220.976H9.35426V196.148H26.0109V188.397Z" fill="white"/>
<path d="M46.0598 221.46C56.3797 221.46 63.8631 214.496 63.8631 204.686C63.8631 194.876 56.3797 187.913 46.0598 187.913C35.7399 187.913 28.1962 194.876 28.1962 204.686C28.1962 214.496 35.7399 221.46 46.0598 221.46ZM46.0598 213.709C41.3525 213.709 37.7315 210.318 37.7315 204.686C37.7315 199.055 41.3525 195.664 46.0598 195.664C50.7671 195.664 54.3278 199.055 54.3278 204.686C54.3278 210.318 50.7671 213.709 46.0598 213.709Z" fill="white"/>
<path d="M102.818 213.225V188.397H74.5139L74.0915 199.66C73.7294 206.745 72.9448 213.104 68.4789 213.225H67.1512V228H75.9019V220.976H98.7143V228H107.465V213.225H102.818ZM82.6008 200.326L82.7819 196.148H93.4035V213.225H79.704C81.9973 210.802 82.4198 205.837 82.6008 200.326Z" fill="white"/>
<path d="M129.805 221.46C140.125 221.46 147.608 214.496 147.608 204.686C147.608 194.876 140.125 187.913 129.805 187.913C119.485 187.913 111.941 194.876 111.941 204.686C111.941 214.496 119.485 221.46 129.805 221.46ZM129.805 213.709C125.098 213.709 121.477 210.318 121.477 204.686C121.477 199.055 125.098 195.664 129.805 195.664C134.512 195.664 138.073 199.055 138.073 204.686C138.073 210.318 134.512 213.709 129.805 213.709Z" fill="white"/>
<path d="M180.094 203.96C183.112 202.567 184.862 200.084 184.862 196.814C184.862 191.485 180.034 188.397 171.887 188.397H155.291V220.976H172.611C181.543 220.976 185.828 217.464 185.828 211.711C185.828 207.835 183.896 205.231 180.094 203.96ZM163.921 194.816H171.042C174.301 194.816 175.991 195.906 175.991 198.268C175.991 200.569 174.301 201.78 171.042 201.78H163.921V194.816ZM171.826 214.557H163.921V207.351H172.007C175.447 207.351 177.017 208.501 177.017 210.984C177.017 213.406 175.266 214.557 171.826 214.557Z" fill="white"/>
<path d="M211.119 198.813H203.394V188.397H194.04V220.976L209.851 221.036C218.904 221.036 223.973 216.858 223.973 209.652C223.973 202.809 219.628 198.873 211.119 198.813ZM227.473 220.976H236.828V188.397H227.473V220.976ZM209.006 214.315H203.394V204.868L209.006 204.929C212.627 204.989 214.619 206.321 214.619 209.531C214.619 212.74 212.627 214.375 209.006 214.315Z" fill="white"/>
<path d="M278.19 220.976L265.637 204.323L277.707 188.397H267.689L260.628 197.904L253.748 188.397H243.187L255.257 204.565L242.765 220.976H253.024L260.387 210.984L267.508 220.976H278.19Z" fill="white"/>
<path d="M63.5883 153.981C100.258 153.981 127.177 126.12 127.177 76.9907C127.177 27.8613 100.258 0 63.5883 0C27.131 0 0 27.8613 0 76.9907C0 126.12 27.131 153.981 63.5883 153.981ZM63.5883 124.844C46.6314 124.844 34.7616 110.807 34.7616 76.9907C34.7616 43.1743 46.6314 29.1374 63.5883 29.1374C80.7572 29.1374 92.627 43.1743 92.627 76.9907C92.627 110.807 80.7572 124.844 63.5883 124.844Z" fill="white"/>
<path d="M182.437 82.9458C204.057 82.9458 219.106 67.2073 219.106 41.8982C219.106 16.5892 204.057 0.850729 182.437 0.850729C160.817 0.850729 145.556 16.8018 145.556 41.8982C145.556 66.9947 160.817 82.9458 182.437 82.9458ZM169.508 151.429H194.731L296.048 2.55217H270.825L169.508 151.429ZM182.437 65.5059C173.323 65.5059 166.964 57.6367 166.964 41.8982C166.964 26.1598 173.323 18.2906 182.437 18.2906C191.764 18.2906 197.91 25.9471 197.91 41.8982C197.91 57.8494 191.764 65.5059 182.437 65.5059ZM283.119 153.131C304.739 153.131 320 137.18 320 112.083C320 86.9867 304.739 71.0356 283.119 71.0356C261.711 71.0356 246.449 86.9867 246.449 112.083C246.449 137.18 261.711 153.131 283.119 153.131ZM283.119 135.691C274.004 135.691 267.646 128.034 267.646 112.083C267.646 96.132 274.004 88.4755 283.119 88.4755C292.445 88.4755 298.592 96.3447 298.592 112.083C298.592 127.822 292.445 135.691 283.119 135.691Z" fill="white"/>
</g>
</svg>
