<svg width="496" height="1209" viewBox="0 0 496 1209" fill="none" xmlns="http://www.w3.org/2000/svg">
<g clip-path="url(#clip0)">
<path opacity="0.08" d="M317.372 167.736C432.54 282.904 496 436.148 496 599.107C496 762.067 432.54 915.154 317.372 1030.48C202.203 1145.65 48.9595 1209.11 -114 1209.11C-276.959 1209.11 -430.046 1145.65 -545.371 1030.48C-660.54 915.311 -724 762.067 -724 599.107C-724 436.148 -660.54 283.061 -545.371 167.736C-430.203 52.5675 -276.959 -10.8926 -114 -10.8926C48.9595 -10.8926 202.047 52.5675 317.372 167.736ZM-390.717 158.648C-373.167 161.155 -356.401 179.801 -356.088 200.798C-321.929 160.528 -279.936 189.046 -279.936 189.046C-296.859 196.097 -309.864 232.293 -341.516 257.364C-373.168 282.277 -414.378 275.696 -414.378 275.696C-403.879 285.411 -401.372 299.827 -400.902 307.661C-326.943 234.956 -225.721 189.829 -114 189.829C-98.9573 189.829 -84.0717 190.613 -69.4994 192.18C-96.9204 187.166 -115.097 171.967 -115.097 135.928C-115.097 182.622 -145.808 194.217 -187.331 194.217C-228.855 194.217 -312.214 122.295 -334.621 113.677C-319.579 151.91 -351.387 161.155 -351.387 161.155C-354.678 97.5381 -429.89 109.917 -444.462 150.813C-459.034 191.867 -440.702 218.191 -427.696 220.541C-414.691 222.891 -398.708 210.983 -403.879 194.06C-409.206 177.137 -431.927 179.331 -431.927 179.331C-429.576 166.639 -408.266 156.141 -390.717 158.648ZM-356.088 995.067C-356.401 1016.06 -373.167 1034.71 -390.717 1037.22C-408.266 1039.72 -429.576 1029.38 -432.24 1016.53C-432.24 1016.53 -409.52 1018.73 -404.193 1001.8C-398.865 984.882 -414.847 972.973 -428.01 975.324C-441.015 977.674 -459.505 1004 -444.776 1045.05C-430.203 1086.1 -354.835 1098.33 -351.701 1034.71C-351.701 1034.71 -319.892 1043.95 -334.935 1082.19C-312.528 1073.41 -229.952 1002.27 -188.272 1001.65C-243.114 991.62 -294.352 970.466 -339.166 940.852C-309.394 965.766 -296.702 1000.24 -280.249 1006.98C-280.093 1006.82 -321.929 1035.34 -356.088 995.067ZM160.524 1037.22C142.974 1034.71 126.208 1016.06 125.895 995.067C91.7361 1035.34 49.743 1006.82 49.743 1006.82C65.0987 1000.39 77.1638 969.996 102.861 945.866C59.7711 972.973 11.1966 992.246 -40.6683 1001.65C1.63837 1004.15 82.1778 1073.57 104.271 1082.19C89.2289 1043.95 121.038 1034.71 121.038 1034.71C124.328 1098.33 199.54 1085.95 214.112 1045.05C228.684 1004 210.352 977.674 197.346 975.324C184.341 972.973 168.358 984.882 173.529 1001.8C178.857 1018.73 201.577 1016.53 201.577 1016.53C199.383 1029.38 178.073 1039.72 160.524 1037.22ZM125.895 200.798C126.208 179.801 142.974 161.155 160.524 158.648C178.073 156.141 199.383 166.482 202.047 179.331C202.047 179.331 179.327 177.137 173.999 194.06C168.672 210.983 184.654 222.891 197.816 220.541C210.822 218.191 229.311 191.867 214.582 150.813C200.01 109.76 124.641 97.5381 121.507 161.155C121.507 161.155 89.6991 151.91 104.741 113.677C82.1779 122.452 -1.02533 194.217 -42.5486 194.217C-47.2493 194.217 -51.7931 194.06 -56.0237 193.747C31.7235 206.125 110.539 246.552 171.179 305.468C171.962 297.32 174.783 284.471 184.498 275.539C184.498 275.539 143.288 282.277 111.636 257.207C79.9844 232.136 66.979 195.94 50.0563 188.889C49.8996 189.046 91.7361 160.528 125.895 200.798ZM-86.8923 84.3759C-62.4484 75.4445 -23.7455 79.3619 -16.2243 119.788C-8.54645 160.058 -54.3003 166.326 -64.7986 159.431C-56.9641 151.44 -50.853 137.338 -57.5907 126.839C-64.3284 116.341 -88.7725 112.894 -91.1229 135.457C-93.4733 158.178 -73.4168 180.898 -51.6367 180.898C-29.8566 180.898 10.4133 157.081 10.4133 117.281C10.4133 103.336 2.57858 85.9431 -8.85989 83.436C0.0715332 66.2 49.2728 74.6611 41.4382 113.834C41.4382 113.834 90.4825 76.6981 138.743 79.832C62.9048 42.8528 -20.6118 22.9528 -107.262 22.0126C-95.0402 32.981 -73.5735 57.2683 -86.8923 84.3759ZM-362.356 316.436C-286.987 299.984 -238.883 327.561 -238.883 327.561C-271.788 302.334 -274.452 262.221 -274.452 262.221C-173.229 274.286 -138.13 359.996 -138.13 359.996C-130.452 301.394 -172.759 284.941 -172.759 284.941C-155.366 260.967 -131.236 273.973 -131.236 273.973C-139.697 251.252 -130.296 232.919 -122.618 222.735C-214.439 224.772 -298.112 259.871 -362.356 316.436ZM-121.051 975.48C-128.885 966.079 -140.637 946.649 -131.393 922.049C-131.393 922.049 -155.366 935.211 -172.916 911.08C-172.916 911.08 -130.452 894.471 -138.287 836.025C-138.287 836.025 -173.229 921.579 -274.608 933.801C-274.608 933.801 -271.945 893.687 -239.04 868.46C-239.04 868.46 -288.554 896.821 -365.803 878.802C-300.619 937.404 -214.909 973.757 -121.051 975.48ZM-361.102 350.438H-362.669V352.005C-362.669 352.005 -322.713 414.838 -340.889 465.763C-340.889 465.763 -301.559 447.9 -275.079 465.449C-248.754 482.842 -244.837 538.938 -281.503 551.16C-281.503 551.16 -280.406 522.172 -305.163 522.172C-316.758 522.172 -324.593 533.767 -324.593 544.736C-324.593 555.704 -315.975 574.193 -281.346 572C-247.344 569.806 -224.154 531.103 -230.108 484.096L-231.518 482.686C-231.048 482.686 -230.735 482.842 -230.265 482.842C-230.265 482.372 -230.421 482.059 -230.421 481.589L-229.011 482.999C-182.161 488.954 -143.301 465.763 -141.107 431.761C-138.914 397.132 -157.56 388.514 -168.372 388.514C-179.184 388.514 -190.935 396.192 -190.935 407.944C-190.935 432.701 -161.947 431.604 -161.947 431.604C-174.013 468.427 -230.108 464.509 -247.658 438.029C-265.05 411.704 -247.344 372.218 -247.344 372.218C-298.269 390.394 -361.102 350.438 -361.102 350.438ZM-264.423 598.011C-218.043 619.164 -203.157 655.83 -203.157 655.83C-183.728 609.763 -141.891 613.053 -132.646 614.463L-131.863 613.68C-131.863 613.68 -131.862 613.993 -131.706 614.62C-131.079 614.777 -130.766 614.777 -130.766 614.777L-131.549 615.56C-130.139 624.805 -126.848 666.641 -172.916 686.071C-172.916 686.071 -136.25 700.957 -115.097 747.338C-93.9434 700.957 -57.2773 686.071 -57.2773 686.071C-103.345 666.641 -100.054 624.805 -98.6442 615.56L-99.4276 614.777C-99.4276 614.777 -99.1141 614.777 -98.4873 614.62C-98.3306 613.993 -98.3304 613.68 -98.3304 613.68L-97.547 614.463C-88.3022 613.053 -46.4656 609.763 -27.0359 655.83C-27.0359 655.83 -12.1504 619.164 34.2303 598.011C-12.1504 576.857 -27.0359 540.192 -27.0359 540.192C-46.4656 586.259 -88.3022 582.968 -97.547 581.558L-98.3304 582.341C-98.3304 582.341 -98.3306 582.028 -98.4873 581.401C-99.1141 581.245 -99.4276 581.245 -99.4276 581.245L-98.6442 580.461C-100.054 571.216 -103.345 529.38 -57.2773 509.95C-57.2773 509.95 -93.9434 495.064 -115.097 448.684C-136.25 495.064 -172.916 509.95 -172.916 509.95C-126.848 529.38 -130.139 571.216 -131.549 580.461L-130.766 581.245C-130.766 581.245 -131.079 581.245 -131.706 581.401C-131.862 582.028 -131.863 582.341 -131.863 582.341L-132.646 581.558C-141.891 582.968 -183.728 586.259 -203.157 540.192C-203.157 540.035 -218.043 576.701 -264.423 598.011ZM-275.079 730.572C-301.403 747.964 -340.889 730.258 -340.889 730.258C-322.713 781.183 -362.669 844.016 -362.669 844.016V845.583H-361.102C-361.102 845.583 -298.269 805.627 -247.344 823.803C-247.344 823.803 -265.207 784.473 -247.658 757.993C-230.265 731.668 -174.169 727.751 -161.947 764.417C-161.947 764.417 -190.935 763.32 -190.935 788.077C-190.935 799.673 -179.34 807.507 -168.372 807.507C-157.403 807.507 -138.914 798.889 -141.107 764.26C-143.301 730.258 -182.004 707.068 -229.011 713.022L-230.421 714.432C-230.421 713.962 -230.265 713.649 -230.265 713.179C-230.735 713.179 -231.048 713.336 -231.518 713.336L-230.108 711.925C-224.154 665.075 -247.344 626.215 -281.346 624.021C-315.975 621.828 -324.593 640.474 -324.593 651.286C-324.593 662.097 -316.915 673.849 -305.163 673.849C-280.406 673.849 -281.503 644.861 -281.503 644.861C-244.681 656.927 -248.598 713.022 -275.079 730.572ZM130.909 845.427H132.476V843.86C132.476 843.86 92.5196 781.026 110.696 730.102C110.696 730.102 71.3663 747.964 44.8854 730.415C18.5612 713.022 14.6441 656.927 51.3099 644.705C51.3099 644.705 50.2128 673.693 74.9701 673.693C86.5652 673.693 94.4001 662.098 94.4001 651.129C94.4001 640.317 85.7819 621.671 51.1531 623.865C17.151 626.058 -6.03928 664.761 -0.085022 711.769L1.32507 713.179C0.855011 713.179 0.541534 713.022 0.0714722 713.022C0.0714722 713.492 0.228302 713.806 0.228302 714.276L-1.18179 712.866C-48.0325 706.911 -86.8922 730.102 -89.0858 764.104C-91.2795 798.732 -72.6334 807.35 -61.8217 807.35C-51.0099 807.35 -39.2579 799.673 -39.2579 787.921C-39.2579 763.163 -68.2458 764.26 -68.2458 764.26C-56.1805 727.438 -0.0850525 731.355 17.4644 757.836C34.8571 784.16 17.1511 823.646 17.1511 823.646C68.0758 805.47 130.909 845.427 130.909 845.427ZM44.8854 465.449C71.2096 448.057 110.696 465.763 110.696 465.763C92.5196 414.838 132.476 352.005 132.476 352.005V350.438H130.909C130.909 350.438 68.0758 390.394 17.1511 372.218C17.1511 372.218 35.0139 411.548 17.4644 438.029C-0.0850525 464.509 -56.0239 468.27 -68.2458 431.604C-68.2458 431.604 -39.2579 432.701 -39.2579 407.944C-39.2579 396.349 -50.8533 388.514 -61.8217 388.514C-72.7901 388.514 -91.2795 397.132 -89.0858 431.761C-86.8922 465.763 -48.1892 488.954 -1.18179 482.999L0.228302 481.589C0.228302 482.059 0.0714722 482.372 0.0714722 482.842C0.541534 482.842 0.855011 482.686 1.32507 482.686L-0.085022 484.096C-6.03928 530.947 17.151 569.806 51.1531 572C85.7819 574.193 94.4001 555.547 94.4001 544.736C94.4001 533.924 86.7219 522.172 74.9701 522.172C50.2128 522.172 51.3099 551.16 51.3099 551.16C14.4874 538.938 18.4045 482.842 44.8854 465.449ZM-98.8006 273.816C-98.8006 273.816 -74.8268 260.654 -57.2773 284.785C-57.2773 284.785 -99.7409 301.394 -91.9063 359.84C-91.9063 359.84 -56.9641 274.286 44.4153 262.064C44.4153 262.064 41.7516 302.177 8.84634 327.405C8.84634 327.405 58.2041 299.2 135.296 317.063C70.426 259.714 -14.3441 224.301 -107.262 222.578C-99.741 232.763 -90.1826 251.096 -98.8006 273.816ZM177.29 311.892C192.019 326.934 205.808 343.074 218.186 360.153C202.047 330.852 207.218 298.573 207.218 298.573C198.286 308.288 185.438 311.108 177.29 311.892ZM165.695 347.304C183.714 424.553 155.353 474.068 155.353 474.068C180.58 441.162 220.693 438.499 220.693 438.499C208.628 539.721 122.918 574.82 122.918 574.82C181.52 582.498 197.973 540.192 197.973 540.192C221.947 557.584 208.941 581.715 208.941 581.715C233.385 572.47 252.815 584.222 262.373 592.056C260.65 498.041 224.297 412.488 165.695 347.304ZM295.122 599.107C295.122 609.762 294.651 620.418 293.868 630.759C301.076 610.703 316.589 598.011 346.673 598.011C316.275 598.011 300.762 585.005 293.555 564.479C294.652 575.917 295.122 587.356 295.122 599.107ZM262.373 603.965C252.972 611.8 233.542 623.551 208.941 614.307C208.941 614.307 222.103 638.28 197.973 655.83C197.973 655.83 181.364 613.367 122.918 621.201C122.918 621.201 208.471 656.143 220.693 757.523C220.693 757.523 180.58 754.859 155.353 721.954C155.353 721.954 184.498 772.722 164.911 851.694C224.454 785.884 261.12 699.077 262.373 603.965ZM179.17 884.129C187.318 885.226 198.913 888.36 207.218 897.291C207.218 897.291 202.83 869.714 214.739 842.449C203.77 857.178 191.862 871.124 179.17 884.129ZM138.43 878.018C59.4576 897.605 8.68951 868.46 8.68951 868.46C41.5947 893.687 44.2588 933.801 44.2588 933.801C-56.9639 921.735 -92.0628 836.025 -92.0628 836.025C-99.7407 894.628 -57.4343 911.08 -57.4343 911.08C-74.827 935.054 -98.9575 922.049 -98.9575 922.049C-89.7126 946.493 -101.464 966.079 -109.299 975.48C-14.0305 974.227 72.7764 937.561 138.43 878.018ZM-385.546 721.797C-410.773 754.702 -450.886 757.366 -450.886 757.366C-438.821 656.143 -353.111 621.044 -353.111 621.044C-411.714 613.366 -428.166 655.673 -428.166 655.673C-452.14 638.28 -439.134 614.15 -439.134 614.15C-461.855 622.611 -480.188 613.21 -490.373 605.532C-488.806 698.45 -453.393 783.22 -396.044 848.09C-413.907 771.155 -385.546 721.797 -385.546 721.797ZM-439.134 581.558C-439.134 581.558 -452.297 557.584 -428.166 540.035C-428.166 540.035 -411.557 582.498 -353.111 574.664C-353.111 574.664 -438.664 539.722 -450.886 438.342C-450.886 438.342 -410.773 441.006 -385.546 473.911C-385.546 473.911 -413.124 425.807 -396.671 350.438C-453.237 414.682 -488.179 498.355 -490.373 590.019C-480.345 582.498 -461.855 573.097 -439.134 581.558ZM262.216 285.254C259.866 298.26 271.775 314.242 288.697 309.072C305.62 303.744 303.426 281.024 303.426 281.024C316.275 283.687 326.617 304.998 324.11 322.547C321.602 340.096 302.956 356.862 281.96 357.176C322.229 391.335 293.712 433.328 293.712 433.328C286.974 416.875 252.502 404.183 227.588 374.412C257.202 419.382 278.356 470.464 288.384 525.306C289.011 483.469 360.305 401.049 368.923 378.643C330.691 393.685 321.446 361.877 321.446 361.877C385.063 358.586 372.684 283.374 331.788 268.802C290.891 253.759 264.567 272.249 262.216 285.254ZM369.08 441.476C408.253 433.798 416.714 482.842 399.478 491.774C397.128 480.335 379.578 472.501 365.633 472.501C325.833 472.501 302.016 512.77 302.016 534.551C302.016 556.331 324.737 576.387 347.457 574.037C370.177 571.686 366.573 547.243 356.075 540.505C345.576 533.767 331.474 539.721 323.483 547.713C316.432 537.214 322.7 491.46 363.126 499.138C403.396 506.816 407.469 545.362 398.538 569.806C427.526 555.547 453.38 581.245 463.095 592.84C462.155 504.152 441.315 418.755 402.769 341.663C407.626 390.551 369.08 441.476 369.08 441.476ZM398.538 626.215C407.469 650.659 403.552 689.362 363.126 696.883C322.856 704.561 316.588 658.807 323.483 648.309C331.474 656.143 345.576 662.254 356.075 655.516C366.573 648.779 370.02 624.335 347.457 621.984C324.737 619.634 302.016 639.691 302.016 661.471C302.016 683.251 325.833 723.52 365.633 723.52C379.578 723.52 396.971 715.686 399.478 704.248C416.714 713.179 408.253 762.38 369.08 754.545C369.08 754.545 409.193 807.507 402.612 857.492C441.628 779.459 462.625 692.966 463.252 603.338C453.537 614.777 427.526 640.474 398.538 626.215ZM331.944 927.533C372.997 912.961 385.219 837.592 321.603 834.458C321.603 834.458 330.847 802.65 369.08 817.692C360.462 795.599 291.048 714.902 288.541 672.752C279.139 724.617 259.866 773.192 232.758 816.282C257.045 790.585 287.444 778.519 293.712 763.164C293.712 763.164 322.229 805.157 281.96 839.316C302.956 839.629 321.602 856.395 324.11 873.944C326.617 891.494 316.275 912.804 303.426 915.468C303.426 915.468 305.62 892.747 288.697 887.42C271.775 882.092 259.866 898.075 262.216 911.237C264.567 924.399 290.891 942.105 331.944 927.533ZM184.184 920.168C175.253 911.864 172.119 900.268 171.022 892.12C157.86 904.812 143.914 916.721 129.185 927.69C156.763 915.781 184.184 920.168 184.184 920.168ZM-148.629 1006.82C-128.102 1014.03 -115.097 1029.54 -115.097 1059.94C-115.097 1029.85 -102.405 1014.34 -82.348 1007.13C-92.8464 1007.92 -103.345 1008.39 -114 1008.39C-125.595 1008.23 -137.19 1007.76 -148.629 1006.82ZM41.4382 1082.03C49.1161 1121.2 0.0715332 1129.66 -8.85989 1112.43C2.57858 1110.08 10.4133 1092.53 10.4133 1078.58C10.4133 1038.78 -29.8566 1014.97 -51.6367 1014.97C-73.4168 1014.97 -93.4733 1037.69 -91.1229 1060.41C-88.7725 1083.13 -64.3284 1079.52 -57.5907 1069.03C-50.853 1058.53 -56.8074 1044.42 -64.7986 1036.43C-54.3003 1029.38 -8.54645 1035.65 -16.2243 1076.08C-23.9022 1116.35 -62.4484 1120.42 -86.8923 1111.49C-72.6334 1140.48 -98.3307 1166.49 -109.926 1176.2C-20.2983 1175.58 66.1953 1154.74 144.228 1115.56C94.243 1122.14 41.4382 1082.03 41.4382 1082.03ZM-143.301 1111.65C-167.745 1120.58 -206.448 1116.66 -213.969 1076.23C-221.647 1035.96 -175.893 1029.7 -165.394 1036.59C-173.229 1044.58 -179.34 1058.68 -172.602 1069.18C-165.865 1079.68 -141.421 1083.13 -139.07 1060.56C-136.72 1037.84 -156.777 1015.12 -178.557 1015.12C-200.337 1015.12 -240.606 1038.94 -240.606 1078.74C-240.606 1092.69 -232.772 1110.08 -221.333 1112.59C-230.265 1129.82 -279.466 1121.36 -271.631 1082.19C-271.631 1082.19 -322.556 1120.73 -371.601 1116.03C-294.508 1154.58 -208.955 1175.26 -120.424 1176.36C-131.863 1166.49 -157.56 1140.48 -143.301 1111.65ZM-401.059 890.397C-401.842 898.545 -404.819 911.394 -414.378 920.325C-414.378 920.325 -382.099 915.154 -352.798 931.293C-369.877 918.758 -386.016 905.126 -401.059 890.397ZM-492.41 910.767C-490.059 897.761 -501.968 881.779 -518.891 886.95C-535.813 892.277 -533.62 914.998 -533.62 914.998C-546.468 912.334 -556.81 891.024 -554.303 873.474C-551.796 855.925 -533.15 839.159 -512.153 838.845C-552.423 804.687 -523.905 762.693 -523.905 762.693C-516.854 779.616 -480.658 792.621 -455.587 824.273C-430.673 855.925 -437.254 897.135 -437.254 897.135C-428.323 887.42 -415.474 884.599 -407.326 883.816C-466.242 823.176 -506.668 744.204 -519.047 656.613C-518.734 661.001 -518.577 665.545 -518.577 670.089C-518.577 711.612 -590.499 794.972 -599.117 817.379C-560.884 802.336 -551.639 834.145 -551.639 834.145C-615.256 837.435 -602.877 912.647 -561.981 927.219C-521.084 942.105 -494.76 923.772 -492.41 910.767ZM-599.273 754.389C-638.446 762.067 -646.907 713.022 -629.671 704.091C-627.321 715.529 -609.771 723.364 -595.826 723.364C-556.026 723.364 -532.209 683.094 -532.209 661.314C-532.209 639.534 -554.93 619.477 -577.65 621.828C-600.37 624.178 -596.766 648.622 -586.268 655.36C-575.77 662.097 -561.667 656.143 -553.676 648.152C-546.625 658.65 -552.893 704.404 -593.319 696.726C-633.589 689.048 -637.663 650.502 -628.731 626.058C-655.682 639.377 -680.126 617.911 -691.251 605.532C-690.311 692.182 -670.411 775.699 -633.432 851.538C-636.409 803.433 -599.273 754.389 -599.273 754.389ZM-628.731 569.649C-637.663 545.205 -633.745 506.503 -593.319 498.982C-553.049 491.304 -546.782 537.058 -553.676 547.556C-561.667 539.721 -575.77 533.61 -586.268 540.348C-596.766 547.086 -600.214 571.53 -577.65 573.88C-554.93 576.231 -532.209 556.174 -532.209 534.394C-532.209 512.614 -556.026 472.344 -595.826 472.344C-609.771 472.344 -627.164 480.179 -629.671 491.617C-646.907 482.686 -638.446 433.485 -599.273 441.319C-599.273 441.319 -635.156 393.842 -633.432 346.521C-669.941 421.576 -689.841 504.309 -691.095 590.019C-680.126 577.797 -655.682 556.487 -628.731 569.649ZM-562.137 268.488C-603.19 283.061 -615.413 358.43 -551.796 361.563C-551.796 361.563 -561.041 393.372 -599.273 378.329C-590.499 400.893 -518.734 484.096 -518.734 525.619C-518.734 567.299 -530.329 597.854 -577.023 597.854C-540.984 597.854 -525.942 616.03 -520.771 643.451C-522.338 628.879 -523.278 613.993 -523.278 598.951C-523.278 487.23 -478.307 386.007 -405.446 312.049C-413.28 311.579 -427.696 309.071 -437.411 298.573C-437.411 298.573 -430.673 339.783 -455.744 371.435C-480.815 403.086 -517.01 416.092 -524.062 433.014C-524.062 433.014 -552.579 391.021 -512.31 356.863C-533.306 356.549 -551.953 339.783 -554.46 322.234C-556.967 304.684 -546.625 283.374 -533.776 280.71C-533.776 280.71 -535.97 303.43 -519.047 308.758C-502.124 314.086 -490.216 298.103 -492.566 284.941C-494.76 272.249 -521.084 253.759 -562.137 268.488ZM-271.475 113.834C-279.152 74.6611 -230.108 66.2 -221.177 83.436C-232.615 85.7864 -240.45 103.336 -240.45 117.281C-240.45 157.081 -200.18 180.898 -178.4 180.898C-156.62 180.898 -136.563 158.178 -138.914 135.457C-141.264 112.737 -165.708 116.341 -172.446 126.839C-179.183 137.338 -173.229 151.44 -165.238 159.431C-175.736 166.483 -221.49 160.215 -213.812 119.788C-206.135 79.5187 -167.588 75.4445 -143.144 84.3759C-156.463 57.4249 -134.996 32.981 -122.618 22.0126C-208.328 23.2661 -291.061 43.1661 -366.116 79.6752C-318.952 77.9517 -271.475 113.834 -271.475 113.834ZM239.026 142.352C254.225 170.4 254.695 208.789 222.573 260.34C274.752 227.905 313.455 228.846 341.502 244.358C326.93 225.712 311.104 207.849 294.182 190.926C276.632 173.377 258.299 157.237 239.026 142.352ZM294.182 1007.29C312.358 989.113 329.124 969.996 344.479 949.94C316.118 967.176 276.632 969.369 222.573 935.837C256.262 989.896 254.068 1029.38 236.676 1057.74C256.889 1042.23 276.005 1025.46 294.182 1007.29ZM-468.749 1054.61C-484.419 1026.56 -485.359 987.859 -452.767 935.681C-504.318 967.803 -542.708 967.332 -570.755 952.133C-555.87 971.406 -539.574 989.739 -522.181 1007.29C-505.258 1024.21 -487.396 1040.04 -468.749 1054.61ZM-522.181 190.926C-538.477 207.222 -553.833 224.458 -567.935 242.321C-540.201 228.689 -502.595 229.159 -452.767 260.184C-483.792 210.356 -484.418 172.75 -470.63 145.016C-488.649 159.274 -505.885 174.474 -522.181 190.926Z" fill="#724A01"/>
</g>
<defs>
<clipPath id="clip0">
<rect width="1209" height="496" fill="white" transform="matrix(0 1 1 0 0 0)"/>
</clipPath>
</defs>
</svg>
