<svg width="496" height="1209" viewBox="0 0 496 1209" fill="none" xmlns="http://www.w3.org/2000/svg">
<path opacity="0.08" d="M178.628 167.736C63.4601 282.904 0 436.148 0 599.107C0 762.067 63.4601 915.154 178.628 1030.48C293.797 1145.65 447.04 1209.11 610 1209.11C772.959 1209.11 926.046 1145.65 1041.37 1030.48C1156.54 915.311 1220 762.067 1220 599.107C1220 436.148 1156.54 283.061 1041.37 167.736C926.203 52.5675 772.959 -10.8926 610 -10.8926C447.04 -10.8926 293.953 52.5675 178.628 167.736ZM886.717 158.648C869.167 161.155 852.401 179.801 852.088 200.798C817.929 160.528 775.936 189.046 775.936 189.046C792.859 196.097 805.864 232.293 837.516 257.364C869.168 282.277 910.378 275.696 910.378 275.696C899.879 285.411 897.372 299.827 896.902 307.661C822.943 234.956 721.721 189.829 610 189.829C594.957 189.829 580.072 190.613 565.499 192.18C592.92 187.166 611.097 171.967 611.097 135.928C611.097 182.622 641.808 194.217 683.331 194.217C724.855 194.217 808.214 122.295 830.621 113.677C815.579 151.91 847.387 161.155 847.387 161.155C850.678 97.5381 925.89 109.917 940.462 150.813C955.034 191.867 936.702 218.191 923.696 220.541C910.691 222.891 894.708 210.983 899.879 194.06C905.206 177.137 927.927 179.331 927.927 179.331C925.576 166.639 904.266 156.141 886.717 158.648ZM852.088 995.067C852.401 1016.06 869.167 1034.71 886.717 1037.22C904.266 1039.72 925.576 1029.38 928.24 1016.53C928.24 1016.53 905.52 1018.73 900.193 1001.8C894.865 984.882 910.847 972.973 924.01 975.324C937.015 977.674 955.505 1004 940.776 1045.05C926.203 1086.1 850.835 1098.33 847.701 1034.71C847.701 1034.71 815.892 1043.95 830.935 1082.19C808.528 1073.41 725.952 1002.27 684.272 1001.65C739.114 991.62 790.352 970.466 835.166 940.852C805.394 965.766 792.702 1000.24 776.249 1006.98C776.093 1006.82 817.929 1035.34 852.088 995.067ZM335.476 1037.22C353.026 1034.71 369.792 1016.06 370.105 995.067C404.264 1035.34 446.257 1006.82 446.257 1006.82C430.901 1000.39 418.836 969.996 393.139 945.866C436.229 972.973 484.803 992.246 536.668 1001.65C494.362 1004.15 413.822 1073.57 391.729 1082.19C406.771 1043.95 374.962 1034.71 374.962 1034.71C371.672 1098.33 296.46 1085.95 281.888 1045.05C267.316 1004 285.648 977.674 298.654 975.324C311.659 972.973 327.642 984.882 322.471 1001.8C317.143 1018.73 294.423 1016.53 294.423 1016.53C296.617 1029.38 317.927 1039.72 335.476 1037.22ZM370.105 200.798C369.792 179.801 353.026 161.155 335.476 158.648C317.927 156.141 296.617 166.482 293.953 179.331C293.953 179.331 316.673 177.137 322.001 194.06C327.328 210.983 311.346 222.891 298.184 220.541C285.178 218.191 266.689 191.867 281.418 150.813C295.99 109.76 371.359 97.5381 374.493 161.155C374.493 161.155 406.301 151.91 391.259 113.677C413.822 122.452 497.025 194.217 538.549 194.217C543.249 194.217 547.793 194.06 552.024 193.747C464.277 206.125 385.461 246.552 324.821 305.468C324.038 297.32 321.217 284.471 311.502 275.539C311.502 275.539 352.712 282.277 384.364 257.207C416.016 232.136 429.021 195.94 445.944 188.889C446.1 189.046 404.264 160.528 370.105 200.798ZM582.892 84.3759C558.448 75.4445 519.745 79.3619 512.224 119.788C504.546 160.058 550.3 166.326 560.799 159.431C552.964 151.44 546.853 137.338 553.591 126.839C560.328 116.341 584.773 112.894 587.123 135.457C589.473 158.178 569.417 180.898 547.637 180.898C525.857 180.898 485.587 157.081 485.587 117.281C485.587 103.336 493.421 85.9431 504.86 83.436C495.928 66.2 446.727 74.6611 454.562 113.834C454.562 113.834 405.518 76.6981 357.257 79.832C433.095 42.8528 516.612 22.9528 603.262 22.0126C591.04 32.981 569.573 57.2683 582.892 84.3759ZM858.356 316.436C782.987 299.984 734.883 327.561 734.883 327.561C767.788 302.334 770.452 262.221 770.452 262.221C669.229 274.286 634.13 359.996 634.13 359.996C626.452 301.394 668.759 284.941 668.759 284.941C651.366 260.967 627.236 273.973 627.236 273.973C635.697 251.252 626.296 232.919 618.618 222.735C710.439 224.772 794.112 259.871 858.356 316.436ZM617.051 975.48C624.885 966.079 636.637 946.649 627.393 922.049C627.393 922.049 651.366 935.211 668.916 911.08C668.916 911.08 626.452 894.471 634.287 836.025C634.287 836.025 669.229 921.579 770.608 933.801C770.608 933.801 767.945 893.687 735.04 868.46C735.04 868.46 784.554 896.821 861.803 878.802C796.619 937.404 710.909 973.757 617.051 975.48ZM857.102 350.438H858.669V352.005C858.669 352.005 818.713 414.838 836.889 465.763C836.889 465.763 797.559 447.9 771.079 465.449C744.754 482.842 740.837 538.938 777.503 551.16C777.503 551.16 776.406 522.172 801.163 522.172C812.758 522.172 820.593 533.767 820.593 544.736C820.593 555.704 811.975 574.193 777.346 572C743.344 569.806 720.154 531.103 726.108 484.096L727.518 482.686C727.048 482.686 726.735 482.842 726.265 482.842C726.265 482.372 726.421 482.059 726.421 481.589L725.011 482.999C678.161 488.954 639.301 465.763 637.107 431.761C634.914 397.132 653.56 388.514 664.372 388.514C675.184 388.514 686.935 396.192 686.935 407.944C686.935 432.701 657.947 431.604 657.947 431.604C670.013 468.427 726.108 464.509 743.658 438.029C761.05 411.704 743.344 372.218 743.344 372.218C794.269 390.394 857.102 350.438 857.102 350.438ZM760.423 598.011C714.043 619.164 699.157 655.83 699.157 655.83C679.728 609.763 637.891 613.053 628.646 614.463L627.863 613.68C627.863 613.68 627.862 613.993 627.706 614.62C627.079 614.777 626.766 614.777 626.766 614.777L627.549 615.56C626.139 624.805 622.848 666.641 668.916 686.071C668.916 686.071 632.25 700.957 611.097 747.338C589.943 700.957 553.277 686.071 553.277 686.071C599.345 666.641 596.054 624.805 594.644 615.56L595.428 614.777C595.428 614.777 595.114 614.777 594.487 614.62C594.331 613.993 594.33 613.68 594.33 613.68L593.547 614.463C584.302 613.053 542.466 609.763 523.036 655.83C523.036 655.83 508.15 619.164 461.77 598.011C508.15 576.857 523.036 540.192 523.036 540.192C542.466 586.259 584.302 582.968 593.547 581.558L594.33 582.341C594.33 582.341 594.331 582.028 594.487 581.401C595.114 581.245 595.428 581.245 595.428 581.245L594.644 580.461C596.054 571.216 599.345 529.38 553.277 509.95C553.277 509.95 589.943 495.064 611.097 448.684C632.25 495.064 668.916 509.95 668.916 509.95C622.848 529.38 626.139 571.216 627.549 580.461L626.766 581.245C626.766 581.245 627.079 581.245 627.706 581.401C627.862 582.028 627.863 582.341 627.863 582.341L628.646 581.558C637.891 582.968 679.728 586.259 699.157 540.192C699.157 540.035 714.043 576.701 760.423 598.011ZM771.079 730.572C797.403 747.964 836.889 730.258 836.889 730.258C818.713 781.183 858.669 844.016 858.669 844.016V845.583H857.102C857.102 845.583 794.269 805.627 743.344 823.803C743.344 823.803 761.207 784.473 743.658 757.993C726.265 731.668 670.169 727.751 657.947 764.417C657.947 764.417 686.935 763.32 686.935 788.077C686.935 799.673 675.34 807.507 664.372 807.507C653.403 807.507 634.914 798.889 637.107 764.26C639.301 730.258 678.004 707.068 725.011 713.022L726.421 714.432C726.421 713.962 726.265 713.649 726.265 713.179C726.735 713.179 727.048 713.336 727.518 713.336L726.108 711.925C720.154 665.075 743.344 626.215 777.346 624.021C811.975 621.828 820.593 640.474 820.593 651.286C820.593 662.097 812.915 673.849 801.163 673.849C776.406 673.849 777.503 644.861 777.503 644.861C740.681 656.927 744.598 713.022 771.079 730.572ZM365.091 845.427H363.524V843.86C363.524 843.86 403.48 781.026 385.304 730.102C385.304 730.102 424.634 747.964 451.115 730.415C477.439 713.022 481.356 656.927 444.69 644.705C444.69 644.705 445.787 673.693 421.03 673.693C409.435 673.693 401.6 662.098 401.6 651.129C401.6 640.317 410.218 621.671 444.847 623.865C478.849 626.058 502.039 664.761 496.085 711.769L494.675 713.179C495.145 713.179 495.458 713.022 495.929 713.022C495.929 713.492 495.772 713.806 495.772 714.276L497.182 712.866C544.033 706.911 582.892 730.102 585.086 764.104C587.28 798.732 568.633 807.35 557.822 807.35C547.01 807.35 535.258 799.673 535.258 787.921C535.258 763.163 564.246 764.26 564.246 764.26C552.181 727.438 496.085 731.355 478.536 757.836C461.143 784.16 478.849 823.646 478.849 823.646C427.924 805.47 365.091 845.427 365.091 845.427ZM451.115 465.449C424.79 448.057 385.304 465.763 385.304 465.763C403.48 414.838 363.524 352.005 363.524 352.005V350.438H365.091C365.091 350.438 427.924 390.394 478.849 372.218C478.849 372.218 460.986 411.548 478.536 438.029C496.085 464.509 552.024 468.27 564.246 431.604C564.246 431.604 535.258 432.701 535.258 407.944C535.258 396.349 546.853 388.514 557.822 388.514C568.79 388.514 587.28 397.132 585.086 431.761C582.892 465.763 544.189 488.954 497.182 482.999L495.772 481.589C495.772 482.059 495.929 482.372 495.929 482.842C495.458 482.842 495.145 482.686 494.675 482.686L496.085 484.096C502.039 530.947 478.849 569.806 444.847 572C410.218 574.193 401.6 555.547 401.6 544.736C401.6 533.924 409.278 522.172 421.03 522.172C445.787 522.172 444.69 551.16 444.69 551.16C481.513 538.938 477.595 482.842 451.115 465.449ZM594.801 273.816C594.801 273.816 570.827 260.654 553.277 284.785C553.277 284.785 595.741 301.394 587.906 359.84C587.906 359.84 552.964 274.286 451.585 262.064C451.585 262.064 454.248 302.177 487.154 327.405C487.154 327.405 437.796 299.2 360.704 317.063C425.574 259.714 510.344 224.301 603.262 222.578C595.741 232.763 586.183 251.096 594.801 273.816ZM318.71 311.892C303.981 326.934 290.192 343.074 277.814 360.153C293.953 330.852 288.782 298.573 288.782 298.573C297.714 308.288 310.562 311.108 318.71 311.892ZM330.305 347.304C312.286 424.553 340.647 474.068 340.647 474.068C315.42 441.162 275.307 438.499 275.307 438.499C287.372 539.721 373.082 574.82 373.082 574.82C314.48 582.498 298.027 540.192 298.027 540.192C274.053 557.584 287.059 581.715 287.059 581.715C262.615 572.47 243.185 584.222 233.627 592.056C235.35 498.041 271.703 412.488 330.305 347.304ZM200.878 599.107C200.878 609.762 201.349 620.418 202.132 630.759C194.924 610.703 179.411 598.011 149.327 598.011C179.725 598.011 195.238 585.005 202.445 564.479C201.348 575.917 200.878 587.356 200.878 599.107ZM233.627 603.965C243.028 611.8 262.458 623.551 287.059 614.307C287.059 614.307 273.897 638.28 298.027 655.83C298.027 655.83 314.636 613.367 373.082 621.201C373.082 621.201 287.529 656.143 275.307 757.523C275.307 757.523 315.42 754.859 340.647 721.954C340.647 721.954 311.502 772.722 331.089 851.694C271.546 785.884 234.88 699.077 233.627 603.965ZM316.83 884.129C308.682 885.226 297.087 888.36 288.782 897.291C288.782 897.291 293.17 869.714 281.261 842.449C292.23 857.178 304.138 871.124 316.83 884.129ZM357.57 878.018C436.542 897.605 487.31 868.46 487.31 868.46C454.405 893.687 451.741 933.801 451.741 933.801C552.964 921.735 588.063 836.025 588.063 836.025C595.741 894.628 553.434 911.08 553.434 911.08C570.827 935.054 594.957 922.049 594.957 922.049C585.713 946.493 597.464 966.079 605.299 975.48C510.03 974.227 423.224 937.561 357.57 878.018ZM881.546 721.797C906.773 754.702 946.886 757.366 946.886 757.366C934.821 656.143 849.111 621.044 849.111 621.044C907.714 613.366 924.166 655.673 924.166 655.673C948.14 638.28 935.134 614.15 935.134 614.15C957.855 622.611 976.188 613.21 986.373 605.532C984.806 698.45 949.393 783.22 892.044 848.09C909.907 771.155 881.546 721.797 881.546 721.797ZM935.134 581.558C935.134 581.558 948.297 557.584 924.166 540.035C924.166 540.035 907.557 582.498 849.111 574.664C849.111 574.664 934.664 539.722 946.886 438.342C946.886 438.342 906.773 441.006 881.546 473.911C881.546 473.911 909.124 425.807 892.671 350.438C949.237 414.682 984.179 498.355 986.373 590.019C976.345 582.498 957.855 573.097 935.134 581.558ZM233.784 285.254C236.134 298.26 224.225 314.242 207.303 309.072C190.38 303.744 192.574 281.024 192.574 281.024C179.725 283.687 169.383 304.998 171.89 322.547C174.398 340.096 193.044 356.862 214.04 357.176C173.771 391.335 202.288 433.328 202.288 433.328C209.026 416.875 243.498 404.183 268.412 374.412C238.798 419.382 217.644 470.464 207.616 525.306C206.989 483.469 135.695 401.049 127.077 378.643C165.309 393.685 174.554 361.877 174.554 361.877C110.937 358.586 123.316 283.374 164.212 268.802C205.109 253.759 231.433 272.249 233.784 285.254ZM126.92 441.476C87.7472 433.798 79.2857 482.842 96.5217 491.774C98.8721 480.335 116.422 472.501 130.367 472.501C170.167 472.501 193.984 512.77 193.984 534.551C193.984 556.331 171.263 576.387 148.543 574.037C125.823 571.686 129.427 547.243 139.925 540.505C150.424 533.767 164.526 539.721 172.517 547.713C179.568 537.214 173.3 491.46 132.874 499.138C92.6044 506.816 88.5306 545.362 97.462 569.806C68.4741 555.547 42.6201 581.245 32.9052 592.84C33.8454 504.152 54.6853 418.755 93.2314 341.663C88.374 390.551 126.92 441.476 126.92 441.476ZM97.462 626.215C88.5306 650.659 92.4477 689.362 132.874 696.883C173.144 704.561 179.412 658.807 172.517 648.309C164.526 656.143 150.424 662.254 139.925 655.516C129.427 648.779 125.98 624.335 148.543 621.984C171.263 619.634 193.984 639.691 193.984 661.471C193.984 683.251 170.167 723.52 130.367 723.52C116.422 723.52 99.0288 715.686 96.5217 704.248C79.2857 713.179 87.7472 762.38 126.92 754.545C126.92 754.545 86.8068 807.507 93.3879 857.492C54.3717 779.459 33.3751 692.966 32.7484 603.338C42.4632 614.777 68.4741 640.474 97.462 626.215ZM164.056 927.533C123.003 912.961 110.781 837.592 174.397 834.458C174.397 834.458 165.153 802.65 126.92 817.692C135.538 795.599 204.952 714.902 207.459 672.752C216.861 724.617 236.134 773.192 263.242 816.282C238.955 790.585 208.556 778.519 202.288 763.164C202.288 763.164 173.771 805.157 214.04 839.316C193.044 839.629 174.398 856.395 171.89 873.944C169.383 891.494 179.725 912.804 192.574 915.468C192.574 915.468 190.38 892.747 207.303 887.42C224.225 882.092 236.134 898.075 233.784 911.237C231.433 924.399 205.109 942.105 164.056 927.533ZM311.816 920.168C320.747 911.864 323.881 900.268 324.978 892.12C338.14 904.812 352.086 916.721 366.815 927.69C339.237 915.781 311.816 920.168 311.816 920.168ZM644.629 1006.82C624.102 1014.03 611.097 1029.54 611.097 1059.94C611.097 1029.85 598.405 1014.34 578.348 1007.13C588.846 1007.92 599.345 1008.39 610 1008.39C621.595 1008.23 633.19 1007.76 644.629 1006.82ZM454.562 1082.03C446.884 1121.2 495.928 1129.66 504.86 1112.43C493.421 1110.08 485.587 1092.53 485.587 1078.58C485.587 1038.78 525.857 1014.97 547.637 1014.97C569.417 1014.97 589.473 1037.69 587.123 1060.41C584.773 1083.13 560.328 1079.52 553.591 1069.03C546.853 1058.53 552.807 1044.42 560.799 1036.43C550.3 1029.38 504.546 1035.65 512.224 1076.08C519.902 1116.35 558.448 1120.42 582.892 1111.49C568.633 1140.48 594.331 1166.49 605.926 1176.2C516.298 1175.58 429.805 1154.74 351.772 1115.56C401.757 1122.14 454.562 1082.03 454.562 1082.03ZM639.301 1111.65C663.745 1120.58 702.448 1116.66 709.969 1076.23C717.647 1035.96 671.893 1029.7 661.394 1036.59C669.229 1044.58 675.34 1058.68 668.602 1069.18C661.865 1079.68 637.421 1083.13 635.07 1060.56C632.72 1037.84 652.777 1015.12 674.557 1015.12C696.337 1015.12 736.606 1038.94 736.606 1078.74C736.606 1092.69 728.772 1110.08 717.333 1112.59C726.265 1129.82 775.466 1121.36 767.631 1082.19C767.631 1082.19 818.556 1120.73 867.601 1116.03C790.508 1154.58 704.955 1175.26 616.424 1176.36C627.863 1166.49 653.56 1140.48 639.301 1111.65ZM897.059 890.397C897.842 898.545 900.819 911.394 910.378 920.325C910.378 920.325 878.099 915.154 848.798 931.293C865.877 918.758 882.016 905.126 897.059 890.397ZM988.41 910.767C986.059 897.761 997.968 881.779 1014.89 886.95C1031.81 892.277 1029.62 914.998 1029.62 914.998C1042.47 912.334 1052.81 891.024 1050.3 873.474C1047.8 855.925 1029.15 839.159 1008.15 838.845C1048.42 804.687 1019.9 762.693 1019.9 762.693C1012.85 779.616 976.658 792.621 951.587 824.273C926.673 855.925 933.254 897.135 933.254 897.135C924.323 887.42 911.474 884.599 903.326 883.816C962.242 823.176 1002.67 744.204 1015.05 656.613C1014.73 661.001 1014.58 665.545 1014.58 670.089C1014.58 711.612 1086.5 794.972 1095.12 817.379C1056.88 802.336 1047.64 834.145 1047.64 834.145C1111.26 837.435 1098.88 912.647 1057.98 927.219C1017.08 942.105 990.76 923.772 988.41 910.767ZM1095.27 754.389C1134.45 762.067 1142.91 713.022 1125.67 704.091C1123.32 715.529 1105.77 723.364 1091.83 723.364C1052.03 723.364 1028.21 683.094 1028.21 661.314C1028.21 639.534 1050.93 619.477 1073.65 621.828C1096.37 624.178 1092.77 648.622 1082.27 655.36C1071.77 662.097 1057.67 656.143 1049.68 648.152C1042.62 658.65 1048.89 704.404 1089.32 696.726C1129.59 689.048 1133.66 650.502 1124.73 626.058C1151.68 639.377 1176.13 617.911 1187.25 605.532C1186.31 692.182 1166.41 775.699 1129.43 851.538C1132.41 803.433 1095.27 754.389 1095.27 754.389ZM1124.73 569.649C1133.66 545.205 1129.75 506.503 1089.32 498.982C1049.05 491.304 1042.78 537.058 1049.68 547.556C1057.67 539.721 1071.77 533.61 1082.27 540.348C1092.77 547.086 1096.21 571.53 1073.65 573.88C1050.93 576.231 1028.21 556.174 1028.21 534.394C1028.21 512.614 1052.03 472.344 1091.83 472.344C1105.77 472.344 1123.16 480.179 1125.67 491.617C1142.91 482.686 1134.45 433.485 1095.27 441.319C1095.27 441.319 1131.16 393.842 1129.43 346.521C1165.94 421.576 1185.84 504.309 1187.09 590.019C1176.13 577.797 1151.68 556.487 1124.73 569.649ZM1058.14 268.488C1099.19 283.061 1111.41 358.43 1047.8 361.563C1047.8 361.563 1057.04 393.372 1095.27 378.329C1086.5 400.893 1014.73 484.096 1014.73 525.619C1014.73 567.299 1026.33 597.854 1073.02 597.854C1036.98 597.854 1021.94 616.03 1016.77 643.451C1018.34 628.879 1019.28 613.993 1019.28 598.951C1019.28 487.23 974.307 386.007 901.446 312.049C909.28 311.579 923.696 309.071 933.411 298.573C933.411 298.573 926.673 339.783 951.744 371.435C976.815 403.086 1013.01 416.092 1020.06 433.014C1020.06 433.014 1048.58 391.021 1008.31 356.863C1029.31 356.549 1047.95 339.783 1050.46 322.234C1052.97 304.684 1042.62 283.374 1029.78 280.71C1029.78 280.71 1031.97 303.43 1015.05 308.758C998.124 314.086 986.216 298.103 988.566 284.941C990.76 272.249 1017.08 253.759 1058.14 268.488ZM767.475 113.834C775.152 74.6611 726.108 66.2 717.177 83.436C728.615 85.7864 736.45 103.336 736.45 117.281C736.45 157.081 696.18 180.898 674.4 180.898C652.62 180.898 632.563 158.178 634.914 135.457C637.264 112.737 661.708 116.341 668.446 126.839C675.183 137.338 669.229 151.44 661.238 159.431C671.736 166.483 717.49 160.215 709.812 119.788C702.135 79.5187 663.588 75.4445 639.144 84.3759C652.463 57.4249 630.996 32.981 618.618 22.0126C704.328 23.2661 787.061 43.1661 862.116 79.6752C814.952 77.9517 767.475 113.834 767.475 113.834ZM256.974 142.352C241.775 170.4 241.305 208.789 273.427 260.34C221.248 227.905 182.545 228.846 154.498 244.358C169.07 225.712 184.896 207.849 201.818 190.926C219.368 173.377 237.701 157.237 256.974 142.352ZM201.818 1007.29C183.642 989.113 166.876 969.996 151.521 949.94C179.882 967.176 219.368 969.369 273.427 935.837C239.738 989.896 241.932 1029.38 259.324 1057.74C239.111 1042.23 219.995 1025.46 201.818 1007.29ZM964.749 1054.61C980.419 1026.56 981.359 987.859 948.767 935.681C1000.32 967.803 1038.71 967.332 1066.76 952.133C1051.87 971.406 1035.57 989.739 1018.18 1007.29C1001.26 1024.21 983.396 1040.04 964.749 1054.61ZM1018.18 190.926C1034.48 207.222 1049.83 224.458 1063.94 242.321C1036.2 228.689 998.595 229.159 948.767 260.184C979.792 210.356 980.418 172.75 966.63 145.016C984.649 159.274 1001.89 174.474 1018.18 190.926Z" fill="#724A01"/>
</svg>
